<svg xmlns="http://www.w3.org/2000/svg" xmlns:xlink="http://www.w3.org/1999/xlink" width="920" zoomAndPan="magnify" viewBox="0 0 690 219" height="292" preserveAspectRatio="xMidYMid meet" version="1.0"><path fill="#1886df" d="M 140.082031 77.578125 C 140.765625 76.824219 141.480469 75.976562 142.195312 75.097656 C 142.898438 74.226562 143.582031 73.332031 144.214844 72.464844 C 145.128906 71.300781 146.011719 70.125 146.867188 68.9375 C 147.710938 67.773438 148.5 66.527344 149.226562 65.234375 C 151.03125 62.421875 152.6875 59.496094 154.144531 56.488281 C 154.542969 55.523438 154.929688 54.535156 155.292969 53.582031 C 155.667969 52.597656 156.054688 51.5625 156.46875 50.480469 C 156.691406 49.867188 156.867188 49.234375 156.984375 48.585938 C 157.101562 47.929688 157.230469 47.28125 157.382812 46.671875 L 156.761719 47.082031 C 156.5625 47.222656 156.386719 47.351562 156.265625 47.480469 L 154.074219 49.925781 L 151.152344 53.832031 C 150.609375 54.6875 150.058594 55.570312 149.519531 56.429688 C 149.003906 57.25 148.496094 58.132812 147.992188 59.050781 C 147.582031 59.882812 147.101562 60.695312 146.597656 61.460938 C 146.117188 62.175781 145.679688 62.941406 145.28125 63.730469 C 144.167969 65.867188 143.027344 68.113281 141.878906 70.40625 C 140.777344 72.605469 139.765625 74.875 138.875 77.152344 L 137.253906 80.574219 C 137.3125 80.503906 137.371094 80.433594 137.429688 80.375 C 138.265625 79.421875 139.144531 78.46875 140.058594 77.554688 Z M 140.082031 77.578125 " fill-opacity="1" fill-rule="evenodd"/><path fill="#1886df" d="M 84.921875 87.039062 C 84.921875 87.039062 84.863281 87.050781 84.839844 87.0625 C 83.773438 87.300781 82.632812 87.722656 81.460938 88.34375 C 79.453125 89.507812 77.703125 91.132812 76.296875 93.175781 C 76.285156 93.199219 76.261719 93.222656 76.238281 93.246094 C 75.957031 93.578125 75.734375 93.90625 75.601562 94.222656 C 76.953125 93.707031 78.101562 93.117188 79.03125 92.460938 C 80.414062 91.472656 81.660156 90.566406 82.703125 89.757812 C 83.347656 89.273438 83.949219 88.769531 84.5 88.25 C 84.992188 87.792969 85.496094 87.371094 86 86.992188 C 85.835938 86.957031 85.671875 86.933594 85.507812 86.933594 C 85.296875 86.933594 85.097656 86.96875 84.910156 87.027344 Z M 84.921875 87.039062 " fill-opacity="1" fill-rule="evenodd"/><path fill="#1886df" d="M 93.476562 0.0703125 L 0.574219 0.0703125 L 0.574219 105.484375 C 0.574219 132.722656 10.714844 159.128906 29.46875 178.855469 C 29.996094 179.417969 30.535156 179.96875 31.085938 180.523438 C 47.34375 197.003906 68.527344 209.832031 92.375 217.601562 L 92.925781 217.777344 L 93.476562 217.941406 L 94.03125 217.777344 L 94.582031 217.601562 C 118.429688 209.832031 139.625 197.015625 155.867188 180.523438 C 156.410156 179.96875 156.949219 179.417969 157.488281 178.855469 C 176.230469 159.117188 186.382812 132.722656 186.382812 105.484375 L 186.382812 0.0703125 Z M 172.863281 88.734375 C 172.863281 88.734375 172.757812 88.78125 172.6875 88.792969 C 172.582031 88.851562 172.453125 88.910156 172.300781 88.921875 L 166.960938 90.742188 C 165.820312 91.15625 164.601562 91.554688 163.34375 91.929688 C 162.125 92.296875 160.9375 92.683594 159.800781 93.09375 C 158.449219 93.519531 157.160156 93.929688 155.890625 94.339844 C 154.613281 94.753906 153.308594 95.164062 151.996094 95.585938 L 148.722656 96.339844 C 147.699219 96.574219 146.703125 96.890625 145.75 97.292969 C 145.714844 97.304688 145.679688 97.316406 145.644531 97.328125 C 142.476562 98.136719 139.191406 98.9375 135.859375 99.691406 C 134.800781 100.019531 133.722656 100.3125 132.710938 100.546875 C 131.679688 100.792969 130.554688 101.007812 129.355469 101.183594 C 129.179688 101.21875 129.121094 101.289062 129.085938 101.347656 L 127.984375 104.273438 C 127.089844 106.613281 126.1875 109.105469 125.308594 111.679688 C 124.449219 114.183594 123.640625 116.710938 122.890625 119.203125 L 121.023438 125.636719 L 119.53125 131.3125 C 119.296875 132.242188 119.074219 133.230469 118.851562 134.253906 C 118.652344 135.226562 118.464844 136.226562 118.300781 137.191406 C 118.125 137.871094 117.984375 138.53125 117.867188 139.1875 C 117.75 139.835938 117.597656 140.507812 117.421875 141.210938 L 116.808594 144.269531 L 116.691406 145.089844 C 116.539062 145.84375 116.574219 146.171875 116.597656 146.300781 C 116.949219 146.738281 116.914062 147.171875 116.855469 147.394531 C 116.832031 147.476562 116.820312 147.558594 116.820312 147.652344 C 116.925781 148.476562 116.527344 149.125 115.753906 149.417969 C 115.496094 149.546875 115.179688 149.605469 114.804688 149.605469 C 114.285156 149.605469 113.839844 149.371094 113.546875 148.933594 C 113.136719 148.476562 112.914062 147.925781 112.914062 147.335938 L 112.914062 146.347656 C 112.914062 146.054688 112.960938 145.679688 113.054688 145.207031 C 113.054688 145.160156 113.078125 145.113281 113.101562 145.066406 C 113.183594 144.855469 113.289062 144.410156 113.289062 143.503906 C 113.289062 143.445312 113.289062 143.375 113.3125 143.316406 C 113.476562 142.667969 113.617188 142.058594 113.734375 141.480469 C 113.851562 140.917969 113.957031 140.351562 114.027344 139.800781 C 114.027344 139.777344 114.027344 139.742188 114.039062 139.71875 C 114.203125 139.070312 114.34375 138.460938 114.460938 137.882812 C 114.578125 137.320312 114.6875 136.722656 114.757812 136.097656 C 114.757812 136.0625 114.757812 136.039062 114.769531 136.003906 C 114.933594 135.332031 115.097656 134.710938 115.273438 134.121094 C 115.425781 133.582031 115.542969 132.992188 115.625 132.382812 C 115.8125 131.453125 116.023438 130.644531 116.28125 129.925781 C 116.515625 129.242188 116.714844 128.550781 116.867188 127.855469 C 117.785156 123.941406 118.804688 120.132812 119.910156 116.535156 C 121.011719 112.925781 122.242188 109.210938 123.558594 105.484375 C 123.898438 104.710938 124.179688 103.992188 124.414062 103.273438 C 124.519531 102.945312 124.636719 102.628906 124.765625 102.289062 C 124.730469 102.289062 124.695312 102.300781 124.660156 102.3125 C 124.203125 102.382812 123.722656 102.488281 123.242188 102.605469 C 122.738281 102.734375 122.265625 102.839844 121.84375 102.921875 L 117.65625 103.453125 C 117.65625 103.453125 115.777344 103.757812 115.050781 103.675781 C 115.027344 103.675781 114.992188 103.675781 114.96875 103.664062 C 114.613281 103.582031 113.523438 103.324219 113.277344 102.40625 C 113.136719 101.828125 113.195312 101.359375 113.417969 100.972656 C 113.570312 100.699219 113.886719 100.359375 114.496094 100.183594 C 114.910156 99.984375 115.285156 99.890625 115.636719 99.890625 C 116.574219 99.890625 117.503906 99.808594 118.40625 99.65625 C 119.355469 99.488281 120.320312 99.324219 121.316406 99.160156 C 122.113281 98.996094 122.914062 98.832031 123.699219 98.667969 C 124.484375 98.503906 125.296875 98.335938 126.117188 98.171875 C 126.128906 98.171875 126.152344 98.171875 126.164062 98.171875 C 126.199219 98.171875 126.222656 98.148438 126.269531 98.125 L 128.195312 92.976562 C 128.570312 91.976562 128.898438 91.121094 129.179688 90.367188 C 129.332031 89.980469 129.449219 89.660156 129.542969 89.414062 C 128.710938 89.710938 127.960938 89.96875 127.265625 90.214844 C 126.1875 90.589844 125.15625 90.945312 124.167969 91.273438 C 123.148438 91.613281 122.078125 91.953125 120.988281 92.273438 C 119.886719 92.601562 118.664062 92.964844 117.351562 93.375 C 115.777344 93.871094 114.25 94.351562 112.773438 94.800781 C 111.28125 95.257812 109.734375 95.691406 108.171875 96.105469 C 107.222656 96.28125 106.328125 96.480469 105.460938 96.726562 C 104.523438 96.984375 103.582031 97.199219 102.679688 97.363281 C 102.035156 97.527344 101.363281 97.65625 100.730469 97.738281 C 100.109375 97.820312 99.476562 97.902344 98.804688 97.984375 C 97.890625 98.136719 96.800781 98.066406 95.601562 98.230469 C 95.519531 98.242188 95.425781 98.230469 95.34375 98.230469 C 95.003906 98.160156 94.59375 98.148438 94.136719 98.183594 C 93.511719 98.230469 92.914062 98.160156 92.328125 97.972656 C 89.980469 97.492188 88.511719 96.09375 87.9375 93.8125 C 87.667969 92.835938 87.585938 91.8125 87.667969 90.777344 C 87.1875 91.203125 86.707031 91.601562 86.226562 92 L 83.503906 94.234375 C 83.503906 94.234375 83.457031 94.269531 83.433594 94.292969 C 82.234375 95.058594 81.074219 95.796875 79.957031 96.46875 C 78.761719 97.199219 77.457031 97.785156 76.074219 98.21875 C 74.875 98.621094 73.65625 98.65625 72.632812 97.832031 C 71.847656 97.304688 70.96875 96.234375 71.414062 94.28125 C 69.007812 95.714844 66.261719 97.246094 63.234375 98.832031 C 60.019531 100.523438 56.648438 102.113281 53.222656 103.558594 C 49.785156 105.003906 46.308594 106.25 42.882812 107.238281 C 39.410156 108.246094 36.109375 108.753906 33.09375 108.753906 C 30.078125 108.753906 27.742188 108.273438 25.828125 107.308594 C 23.894531 106.332031 22.355469 104.957031 21.242188 103.191406 C 20.136719 101.441406 19.445312 99.3125 19.152344 96.867188 C 18.871094 94.480469 18.847656 91.777344 19.105469 88.851562 L 19.105469 88.792969 C 19.105469 88.792969 19.105469 88.722656 19.105469 88.6875 L 19.351562 86.945312 C 19.433594 86.347656 19.5625 85.699219 19.738281 85.007812 C 19.878906 84.371094 20.019531 83.726562 20.171875 83.101562 C 20.3125 82.480469 20.464844 81.878906 20.605469 81.292969 C 20.628906 81.210938 20.664062 81.128906 20.710938 81.046875 C 20.757812 80.960938 20.898438 80.703125 21.101562 79.929688 C 21.101562 79.90625 21.113281 79.871094 21.125 79.847656 L 21.863281 77.871094 C 22.0625 77.257812 22.179688 76.988281 22.25 76.847656 L 22.976562 74.910156 C 23.234375 74.214844 23.589844 73.472656 24.011719 72.699219 L 25.054688 70.617188 C 25.417969 69.886719 25.816406 69.136719 26.253906 68.359375 C 26.675781 67.714844 26.78125 67.46875 26.816406 67.382812 C 26.828125 67.324219 26.863281 67.277344 26.886719 67.230469 C 27.132812 66.832031 27.355469 66.445312 27.554688 66.078125 C 27.765625 65.703125 28 65.304688 28.246094 64.878906 C 28.847656 64.035156 29.339844 63.292969 29.738281 62.636719 C 30.160156 61.964844 30.582031 61.320312 31.003906 60.742188 C 31.320312 60.273438 31.558594 59.941406 31.757812 59.730469 C 31.992188 59.34375 32.25 58.96875 32.496094 58.625 C 32.730469 58.308594 33.011719 57.945312 33.328125 57.558594 C 33.410156 57.390625 33.503906 57.238281 33.585938 57.121094 C 33.691406 56.957031 33.84375 56.769531 34.058594 56.570312 L 34.632812 55.875 C 35.523438 54.746094 36.472656 53.617188 37.449219 52.570312 C 38.375 51.574219 39.304688 50.515625 40.21875 49.445312 L 41.003906 48.65625 C 41.898438 47.597656 42.964844 46.613281 44.148438 45.765625 C 44.5625 45.355469 44.925781 45.011719 45.253906 44.71875 C 45.582031 44.425781 45.921875 44.15625 46.25 43.90625 C 46.917969 43.238281 47.648438 42.625 48.410156 42.074219 C 49.160156 41.535156 49.949219 40.980469 50.769531 40.394531 C 51.683594 39.722656 52.566406 39.171875 53.398438 38.734375 C 54.171875 38.324219 54.9375 37.914062 55.675781 37.5 C 56.648438 37.054688 57.507812 36.679688 58.292969 36.347656 C 59.101562 36.007812 59.898438 35.714844 60.640625 35.457031 C 60.664062 35.457031 60.6875 35.445312 60.710938 35.433594 C 60.828125 35.363281 60.96875 35.304688 61.15625 35.292969 L 62.445312 35.007812 C 62.574219 34.878906 62.765625 34.796875 62.964844 34.785156 L 65.933594 34.65625 C 66.144531 34.65625 66.308594 34.714844 66.460938 34.832031 C 67.539062 35.03125 68.480469 35.386719 69.253906 35.902344 C 70.523438 36.773438 71.296875 38.03125 71.566406 39.640625 C 71.648438 40.0625 71.71875 40.523438 71.753906 40.992188 C 71.800781 41.5 71.777344 42.085938 71.683594 42.722656 C 71.601562 43.71875 71.414062 44.742188 71.132812 45.742188 C 70.851562 46.695312 70.546875 47.648438 70.226562 48.5625 C 69.828125 49.738281 69.324219 50.949219 68.761719 52.171875 C 68.1875 53.382812 67.433594 54.734375 66.507812 56.15625 C 66.085938 56.828125 65.617188 57.535156 65.132812 58.226562 C 64.640625 58.933594 64.136719 59.625 63.644531 60.285156 C 63.621094 60.320312 63.597656 60.34375 63.574219 60.367188 C 63.445312 60.496094 63.316406 60.660156 63.175781 60.859375 C 62.988281 61.140625 62.8125 61.367188 62.625 61.554688 C 62.210938 62.117188 61.695312 62.800781 61.074219 63.574219 C 60.875 63.953125 60.640625 64.28125 60.347656 64.5625 C 60.125 64.785156 59.898438 65.046875 59.675781 65.351562 C 59.652344 65.375 59.628906 65.410156 59.605469 65.433594 C 59.546875 65.492188 59.371094 65.691406 58.960938 66.304688 C 58.9375 66.351562 58.902344 66.386719 58.867188 66.421875 L 57.8125 67.480469 C 57.648438 67.726562 57.484375 67.949219 57.316406 68.148438 C 57.152344 68.359375 56.988281 68.546875 56.824219 68.714844 C 56.660156 68.960938 56.496094 69.183594 56.332031 69.382812 C 56.144531 69.617188 55.96875 69.816406 55.78125 70.007812 C 55.347656 70.441406 54.890625 70.722656 54.417969 70.828125 C 54.359375 70.839844 54.289062 70.851562 54.230469 70.851562 C 53.585938 70.851562 53.035156 70.6875 52.578125 70.359375 C 52.261719 70.171875 52 69.816406 51.777344 69.242188 C 51.742188 69.148438 51.71875 69.054688 51.71875 68.949219 C 51.71875 68.136719 52.035156 67.457031 52.636719 66.972656 C 53.46875 66.292969 54.207031 65.46875 54.820312 64.550781 C 54.84375 64.503906 54.878906 64.46875 54.914062 64.433594 L 55.289062 64.058594 C 55.664062 63.679688 56.003906 63.304688 56.273438 62.953125 C 56.566406 62.578125 56.871094 62.1875 57.199219 61.765625 C 57.222656 61.742188 57.234375 61.71875 57.257812 61.695312 C 57.375 61.496094 57.507812 61.332031 57.71875 61.105469 L 59.417969 58.921875 C 60.382812 57.710938 61.238281 56.5 61.964844 55.289062 L 62.976562 53.769531 C 63.304688 53.277344 63.621094 52.761719 63.9375 52.207031 C 64.347656 51.539062 64.734375 50.855469 65.085938 50.140625 C 65.441406 49.433594 65.792969 48.65625 66.109375 47.847656 C 66.261719 47.386719 66.472656 46.800781 66.71875 46.128906 C 66.953125 45.507812 67.152344 44.871094 67.304688 44.238281 C 67.539062 43.507812 67.679688 42.886719 67.714844 42.332031 C 67.75 41.78125 67.738281 41.179688 67.65625 40.558594 C 67.480469 39.757812 67.023438 39.230469 66.226562 38.984375 C 65.792969 38.839844 65.417969 38.769531 65.097656 38.769531 C 64.195312 38.769531 63.316406 38.898438 62.480469 39.171875 C 61.601562 39.453125 60.746094 39.757812 59.933594 40.074219 C 58.480469 40.558594 56.953125 41.320312 55.359375 42.355469 C 53.796875 43.261719 52.402344 44.167969 51.179688 45.058594 C 50.5 45.671875 49.796875 46.257812 49.160156 46.777344 C 48.550781 47.269531 47.953125 47.753906 47.390625 48.246094 C 46.894531 48.65625 46.402344 49.082031 45.921875 49.527344 C 45.429688 49.972656 44.867188 50.527344 44.207031 51.171875 C 43.550781 51.832031 42.964844 52.441406 42.425781 53.007812 C 41.898438 53.582031 41.34375 54.195312 40.769531 54.839844 C 40.546875 55.148438 40.160156 55.582031 39.621094 56.109375 C 39.222656 56.511719 38.855469 56.933594 38.515625 57.390625 C 38.199219 57.816406 37.894531 58.214844 37.601562 58.578125 C 37.578125 58.707031 37.507812 58.828125 37.425781 58.921875 C 36.863281 59.566406 36.296875 60.273438 35.734375 61.035156 C 35.160156 61.8125 34.632812 62.578125 34.140625 63.292969 C 32.90625 65.011719 31.675781 66.949219 30.453125 69.066406 C 29.644531 70.441406 28.882812 71.875 28.1875 73.34375 C 27.496094 74.800781 26.863281 76.25 26.289062 77.636719 C 25.945312 78.316406 25.664062 79 25.441406 79.691406 L 24.574219 82.292969 L 23.835938 84.855469 C 23.433594 86.148438 23.1875 87.167969 23.117188 87.933594 C 23.023438 88.390625 22.976562 88.804688 22.929688 89.226562 C 22.894531 89.636719 22.871094 90.050781 22.871094 90.460938 C 22.871094 90.542969 22.859375 90.625 22.835938 90.707031 C 22.835938 90.742188 22.824219 90.765625 22.8125 90.777344 C 22.847656 90.871094 22.871094 90.980469 22.871094 91.085938 C 22.871094 91.601562 22.824219 92 22.742188 92.320312 C 22.742188 92.496094 22.707031 92.707031 22.671875 92.941406 C 22.648438 93.058594 22.671875 93.175781 22.707031 93.304688 C 22.71875 93.351562 22.730469 93.410156 22.742188 93.472656 C 22.90625 94.859375 23.128906 96.269531 23.410156 97.679688 C 23.683594 99.019531 24.164062 100.242188 24.84375 101.3125 C 25.511719 102.347656 26.488281 103.214844 27.765625 103.886719 C 29.046875 104.570312 30.828125 104.910156 33.082031 104.910156 C 36.519531 104.910156 40.230469 104.214844 44.125 102.851562 C 48.070312 101.464844 52.09375 99.75 56.085938 97.75 C 60.101562 95.738281 64.078125 93.589844 67.90625 91.34375 C 71.753906 89.085938 75.4375 87.074219 78.867188 85.359375 C 79.570312 84.914062 80.308594 84.511719 81.085938 84.183594 C 81.542969 83.996094 82.035156 83.84375 82.5625 83.714844 C 83.054688 83.597656 83.574219 83.453125 84.148438 83.289062 C 84.710938 83.101562 85.308594 83.03125 85.90625 83.078125 C 86.414062 83.125 86.964844 83.183594 87.5625 83.265625 C 87.597656 83.265625 87.632812 83.277344 87.667969 83.289062 C 88.265625 83.464844 88.773438 83.726562 89.171875 84.054688 L 90.554688 82.667969 C 90.859375 82.242188 91.320312 82.019531 91.835938 82.019531 C 92.199219 82.019531 92.550781 82.078125 92.878906 82.183594 C 93.464844 82.328125 93.769531 82.691406 93.914062 82.972656 C 94.148438 83.441406 94.136719 84.019531 93.851562 84.699219 L 93.476562 85.582031 C 93.476562 85.582031 93.441406 85.652344 93.417969 85.6875 C 92.878906 86.546875 92.445312 87.429688 92.140625 88.308594 C 91.824219 89.214844 91.589844 90.15625 91.4375 91.085938 C 91.296875 92.035156 91.4375 92.800781 91.871094 93.425781 C 92.351562 94.128906 93.582031 94.339844 94.535156 94.386719 C 95.882812 94.46875 97.457031 94.386719 99.207031 94.140625 C 100.144531 93.988281 101.140625 93.800781 102.117188 93.589844 C 103.078125 93.386719 104.0625 93.164062 105.050781 92.917969 C 106.445312 92.507812 107.902344 92.105469 109.378906 91.742188 C 110.871094 91.367188 112.316406 90.980469 113.675781 90.578125 C 115.320312 90.085938 116.925781 89.566406 118.464844 89.039062 C 120.027344 88.511719 121.632812 87.945312 123.277344 87.371094 L 125.144531 86.746094 C 125.648438 86.582031 126.140625 86.429688 126.609375 86.300781 C 126.960938 86.207031 127.324219 86.078125 127.6875 85.933594 C 127.6875 85.933594 131.433594 84.664062 131.433594 84.664062 L 132.464844 82.207031 C 132.675781 81.714844 132.886719 81.222656 133.066406 80.761719 C 133.394531 79.929688 133.769531 79.046875 134.191406 78.128906 C 134.601562 77.222656 134.988281 76.34375 135.351562 75.484375 C 135.730469 74.613281 136.117188 73.722656 136.539062 72.804688 C 136.621094 72.628906 136.703125 72.464844 136.773438 72.273438 C 136.867188 72.027344 137.007812 71.769531 137.183594 71.5 C 137.828125 70.113281 138.488281 68.75 139.144531 67.394531 C 139.789062 66.054688 140.503906 64.644531 141.257812 63.222656 C 141.75 62.246094 142.253906 61.238281 142.792969 60.191406 C 143.347656 59.132812 143.96875 58.085938 144.636719 57.085938 C 145.929688 54.734375 147.3125 52.5 148.722656 50.503906 C 149.121094 49.855469 149.566406 49.199219 150.023438 48.574219 C 150.46875 47.953125 150.960938 47.339844 151.480469 46.730469 C 151.703125 46.425781 151.960938 46.105469 152.21875 45.800781 C 152.5 45.472656 152.839844 45.15625 153.214844 44.871094 C 153.746094 44.414062 154.320312 43.945312 154.871094 43.519531 C 155.492188 43.039062 156.242188 42.699219 157.089844 42.507812 C 157.933594 42.296875 158.742188 42.414062 159.460938 42.851562 C 160.140625 43.273438 160.597656 43.894531 160.832031 44.695312 C 161.03125 45.058594 161.242188 45.53125 161.136719 45.988281 L 161.136719 46.566406 C 161.21875 47.304688 161.195312 47.964844 161.054688 48.527344 C 160.925781 49.046875 160.773438 49.5625 160.609375 50.066406 C 160.292969 51.277344 159.882812 52.535156 159.425781 53.746094 C 158.96875 54.945312 158.484375 56.144531 157.992188 57.308594 C 157.652344 58.003906 157.347656 58.660156 157.066406 59.34375 C 156.761719 60.085938 156.386719 60.8125 155.949219 61.507812 C 154.320312 64.527344 152.523438 67.46875 150.609375 70.207031 L 146.644531 75.660156 C 146.222656 76.25 145.761719 76.8125 145.292969 77.34375 C 144.847656 77.824219 144.425781 78.316406 144.027344 78.800781 C 143.296875 79.691406 142.5 80.597656 141.644531 81.503906 C 140.824219 82.363281 140 83.242188 139.191406 84.148438 C 138.464844 85.042969 137.652344 85.898438 136.785156 86.675781 C 135.941406 87.441406 135.046875 88.15625 134.121094 88.828125 C 133.886719 89.003906 133.675781 89.203125 133.488281 89.449219 L 130.683594 96.984375 C 132.640625 96.597656 134.613281 96.164062 136.5625 95.667969 C 138.6875 95.140625 140.847656 94.574219 142.96875 94 C 144.203125 93.671875 145.421875 93.339844 146.609375 93.011719 C 147.792969 92.683594 148.96875 92.355469 150.117188 92.023438 C 153.566406 91.203125 156.914062 90.214844 160.082031 89.074219 L 166.171875 87.203125 C 166.714844 87.050781 167.242188 86.851562 167.746094 86.628906 C 168.296875 86.371094 168.929688 86.148438 169.625 85.96875 L 171.429688 85.242188 C 173.25 84.511719 173.894531 85.722656 174.046875 86.113281 C 174.234375 86.59375 174.503906 87.804688 172.804688 88.652344 Z M 172.863281 88.734375 " fill-opacity="1" fill-rule="evenodd"/><path fill="#1886df" d="M 301.703125 61.296875 L 266.882812 61.296875 L 266.882812 37.984375 C 266.882812 31.210938 266.507812 26.980469 265.769531 25.296875 C 265.027344 23.617188 263.386719 22.78125 260.851562 22.78125 C 257.988281 22.78125 256.167969 23.804688 255.394531 25.851562 C 254.617188 27.898438 254.230469 32.316406 254.230469 39.113281 L 254.230469 101.40625 C 254.230469 107.917969 254.617188 112.175781 255.394531 114.160156 C 256.167969 116.148438 257.90625 117.148438 260.605469 117.148438 C 263.304688 117.148438 264.886719 116.148438 265.6875 114.160156 C 266.484375 112.175781 266.882812 107.496094 266.882812 100.125 L 266.882812 83.265625 L 301.703125 83.265625 L 301.703125 88.5 C 301.703125 102.382812 300.730469 112.222656 298.769531 118.027344 C 296.808594 123.835938 292.480469 128.925781 285.789062 133.300781 C 279.089844 137.671875 270.839844 139.847656 261.015625 139.847656 C 251.191406 139.847656 242.402344 138.003906 235.792969 134.300781 C 229.171875 130.597656 224.796875 125.46875 222.648438 118.933594 C 220.5 112.386719 219.421875 102.546875 219.421875 89.402344 L 219.421875 50.1875 C 219.421875 40.523438 219.75 33.269531 220.417969 28.4375 C 221.074219 23.605469 223.046875 18.949219 226.332031 14.484375 C 229.609375 10.003906 234.160156 6.488281 239.984375 3.925781 C 245.78125 1.351562 252.46875 0.0703125 260.015625 0.0703125 C 270.273438 0.0703125 278.738281 2.058594 285.402344 6.03125 C 292.070312 10.003906 296.457031 14.953125 298.546875 20.878906 C 300.648438 26.804688 301.691406 36.03125 301.691406 48.550781 L 301.691406 61.296875 Z M 301.703125 61.296875 " fill-opacity="1" fill-rule="nonzero"/><path fill="#1886df" d="M 317.570312 2.890625 L 352.394531 2.890625 L 352.394531 137.015625 L 317.570312 137.015625 Z M 317.570312 2.890625 " fill-opacity="1" fill-rule="nonzero"/><path fill="#1886df" d="M 434.277344 2.890625 L 454.195312 137.015625 L 418.609375 137.015625 L 416.746094 112.902344 L 404.292969 112.902344 L 402.203125 137.015625 L 366.207031 137.015625 L 383.953125 2.890625 Z M 415.828125 89.132812 C 414.070312 73.945312 412.296875 55.171875 410.523438 32.800781 C 406.980469 58.484375 404.75 77.257812 403.847656 89.132812 Z M 415.828125 89.132812 " fill-opacity="1" fill-rule="nonzero"/><path fill="#1886df" d="M 502.265625 2.890625 L 502.265625 110.164062 L 523.441406 110.164062 L 523.441406 137.003906 L 467.445312 137.003906 L 467.445312 2.890625 Z M 502.265625 2.890625 " fill-opacity="1" fill-rule="nonzero"/><path fill="#1886df" d="M 537.429688 2.890625 L 596.394531 2.890625 L 596.394531 29.730469 L 572.238281 29.730469 L 572.238281 55.160156 L 593.742188 55.160156 L 593.742188 80.667969 L 572.238281 80.667969 L 572.238281 137.003906 L 537.417969 137.003906 L 537.417969 2.890625 Z M 537.429688 2.890625 " fill-opacity="1" fill-rule="nonzero"/><path fill="#1886df" d="M 688.957031 81.421875 C 688.957031 94.894531 688.640625 104.4375 688.007812 110.046875 C 687.375 115.652344 685.390625 120.78125 682.054688 125.410156 C 678.722656 130.054688 674.214844 133.617188 668.535156 136.097656 C 662.855469 138.578125 656.238281 139.824219 648.691406 139.824219 C 641.144531 139.824219 635.085938 138.648438 629.382812 136.308594 C 623.679688 133.957031 619.089844 130.441406 615.617188 125.753906 C 612.144531 121.0625 610.078125 115.949219 609.410156 110.421875 C 608.75 104.898438 608.410156 95.234375 608.410156 81.433594 L 608.410156 58.484375 C 608.410156 45.011719 608.726562 35.46875 609.363281 29.859375 C 609.996094 24.253906 611.980469 19.125 615.3125 14.496094 C 618.644531 9.851562 623.152344 6.289062 628.832031 3.808594 C 634.511719 1.328125 641.132812 0.0820312 648.679688 0.0820312 C 656.226562 0.0820312 662.28125 1.257812 667.984375 3.597656 C 673.6875 5.949219 678.277344 9.464844 681.75 14.152344 C 685.226562 18.84375 687.289062 23.957031 687.960938 29.484375 C 688.617188 35.007812 688.957031 44.671875 688.957031 58.472656 Z M 654.136719 37.347656 C 654.136719 31.105469 653.796875 27.121094 653.101562 25.382812 C 652.410156 23.640625 650.992188 22.769531 648.84375 22.769531 C 647.023438 22.769531 645.625 23.476562 644.664062 24.886719 C 643.703125 26.296875 643.222656 30.449219 643.222656 37.359375 L 643.222656 99.996094 C 643.222656 107.777344 643.539062 112.585938 644.171875 114.40625 C 644.804688 116.230469 646.285156 117.148438 648.597656 117.148438 C 650.910156 117.148438 652.480469 116.101562 653.148438 113.996094 C 653.808594 111.890625 654.148438 106.894531 654.148438 98.996094 L 654.148438 37.347656 Z M 654.136719 37.347656 " fill-opacity="1" fill-rule="nonzero"/><path fill="#1886df" d="M 140.082031 77.578125 C 140.765625 76.824219 141.480469 75.976562 142.195312 75.097656 C 142.898438 74.226562 143.582031 73.332031 144.214844 72.464844 C 145.128906 71.300781 146.011719 70.125 146.867188 68.9375 C 147.710938 67.773438 148.5 66.527344 149.226562 65.234375 C 151.03125 62.421875 152.6875 59.496094 154.144531 56.488281 C 154.542969 55.523438 154.929688 54.535156 155.292969 53.582031 C 155.667969 52.597656 156.054688 51.5625 156.46875 50.480469 C 156.691406 49.867188 156.867188 49.234375 156.984375 48.585938 C 157.101562 47.929688 157.230469 47.28125 157.382812 46.671875 L 156.761719 47.082031 C 156.5625 47.222656 156.386719 47.351562 156.265625 47.480469 L 154.074219 49.925781 L 151.152344 53.832031 C 150.609375 54.6875 150.058594 55.570312 149.519531 56.429688 C 149.003906 57.25 148.496094 58.132812 147.992188 59.050781 C 147.582031 59.882812 147.101562 60.695312 146.597656 61.460938 C 146.117188 62.175781 145.679688 62.941406 145.28125 63.730469 C 144.167969 65.867188 143.027344 68.113281 141.878906 70.40625 C 140.777344 72.605469 139.765625 74.875 138.875 77.152344 L 137.253906 80.574219 C 137.3125 80.503906 137.371094 80.433594 137.429688 80.375 C 138.265625 79.421875 139.144531 78.46875 140.058594 77.554688 Z M 140.082031 77.578125 " fill-opacity="1" fill-rule="evenodd"/><path fill="#1886df" d="M 84.921875 87.039062 C 84.921875 87.039062 84.863281 87.050781 84.839844 87.0625 C 83.773438 87.300781 82.632812 87.722656 81.460938 88.34375 C 79.453125 89.507812 77.703125 91.132812 76.296875 93.175781 C 76.285156 93.199219 76.261719 93.222656 76.238281 93.246094 C 75.957031 93.578125 75.734375 93.90625 75.601562 94.222656 C 76.953125 93.707031 78.101562 93.117188 79.03125 92.460938 C 80.414062 91.472656 81.660156 90.566406 82.703125 89.757812 C 83.347656 89.273438 83.949219 88.769531 84.5 88.25 C 84.992188 87.792969 85.496094 87.371094 86 86.992188 C 85.835938 86.957031 85.671875 86.933594 85.507812 86.933594 C 85.296875 86.933594 85.097656 86.96875 84.910156 87.027344 Z M 84.921875 87.039062 " fill-opacity="1" fill-rule="evenodd"/><path fill="#1886df" d="M 93.476562 0.0703125 L 0.574219 0.0703125 L 0.574219 105.484375 C 0.574219 132.722656 10.714844 159.128906 29.46875 178.855469 C 29.996094 179.417969 30.535156 179.96875 31.085938 180.523438 C 47.34375 197.003906 68.527344 209.832031 92.375 217.601562 L 92.925781 217.777344 L 93.476562 217.941406 L 94.03125 217.777344 L 94.582031 217.601562 C 118.429688 209.832031 139.625 197.015625 155.867188 180.523438 C 156.410156 179.96875 156.949219 179.417969 157.488281 178.855469 C 176.230469 159.117188 186.382812 132.722656 186.382812 105.484375 L 186.382812 0.0703125 Z M 172.863281 88.734375 C 172.863281 88.734375 172.757812 88.78125 172.6875 88.792969 C 172.582031 88.851562 172.453125 88.910156 172.300781 88.921875 L 166.960938 90.742188 C 165.820312 91.15625 164.601562 91.554688 163.34375 91.929688 C 162.125 92.296875 160.9375 92.683594 159.800781 93.09375 C 158.449219 93.519531 157.160156 93.929688 155.890625 94.339844 C 154.613281 94.753906 153.308594 95.164062 151.996094 95.585938 L 148.722656 96.339844 C 147.699219 96.574219 146.703125 96.890625 145.75 97.292969 C 145.714844 97.304688 145.679688 97.316406 145.644531 97.328125 C 142.476562 98.136719 139.191406 98.9375 135.859375 99.691406 C 134.800781 100.019531 133.722656 100.3125 132.710938 100.546875 C 131.679688 100.792969 130.554688 101.007812 129.355469 101.183594 C 129.179688 101.21875 129.121094 101.289062 129.085938 101.347656 L 127.984375 104.273438 C 127.089844 106.613281 126.1875 109.105469 125.308594 111.679688 C 124.449219 114.183594 123.640625 116.710938 122.890625 119.203125 L 121.023438 125.636719 L 119.53125 131.3125 C 119.296875 132.242188 119.074219 133.230469 118.851562 134.253906 C 118.652344 135.226562 118.464844 136.226562 118.300781 137.191406 C 118.125 137.871094 117.984375 138.53125 117.867188 139.1875 C 117.75 139.835938 117.597656 140.507812 117.421875 141.210938 L 116.808594 144.269531 L 116.691406 145.089844 C 116.539062 145.84375 116.574219 146.171875 116.597656 146.300781 C 116.949219 146.738281 116.914062 147.171875 116.855469 147.394531 C 116.832031 147.476562 116.820312 147.558594 116.820312 147.652344 C 116.925781 148.476562 116.527344 149.125 115.753906 149.417969 C 115.496094 149.546875 115.179688 149.605469 114.804688 149.605469 C 114.285156 149.605469 113.839844 149.371094 113.546875 148.933594 C 113.136719 148.476562 112.914062 147.925781 112.914062 147.335938 L 112.914062 146.347656 C 112.914062 146.054688 112.960938 145.679688 113.054688 145.207031 C 113.054688 145.160156 113.078125 145.113281 113.101562 145.066406 C 113.183594 144.855469 113.289062 144.410156 113.289062 143.503906 C 113.289062 143.445312 113.289062 143.375 113.3125 143.316406 C 113.476562 142.667969 113.617188 142.058594 113.734375 141.480469 C 113.851562 140.917969 113.957031 140.351562 114.027344 139.800781 C 114.027344 139.777344 114.027344 139.742188 114.039062 139.71875 C 114.203125 139.070312 114.34375 138.460938 114.460938 137.882812 C 114.578125 137.320312 114.6875 136.722656 114.757812 136.097656 C 114.757812 136.0625 114.757812 136.039062 114.769531 136.003906 C 114.933594 135.332031 115.097656 134.710938 115.273438 134.121094 C 115.425781 133.582031 115.542969 132.992188 115.625 132.382812 C 115.8125 131.453125 116.023438 130.644531 116.28125 129.925781 C 116.515625 129.242188 116.714844 128.550781 116.867188 127.855469 C 117.785156 123.941406 118.804688 120.132812 119.910156 116.535156 C 121.011719 112.925781 122.242188 109.210938 123.558594 105.484375 C 123.898438 104.710938 124.179688 103.992188 124.414062 103.273438 C 124.519531 102.945312 124.636719 102.628906 124.765625 102.289062 C 124.730469 102.289062 124.695312 102.300781 124.660156 102.3125 C 124.203125 102.382812 123.722656 102.488281 123.242188 102.605469 C 122.738281 102.734375 122.265625 102.839844 121.84375 102.921875 L 117.65625 103.453125 C 117.65625 103.453125 115.777344 103.757812 115.050781 103.675781 C 115.027344 103.675781 114.992188 103.675781 114.96875 103.664062 C 114.613281 103.582031 113.523438 103.324219 113.277344 102.40625 C 113.136719 101.828125 113.195312 101.359375 113.417969 100.972656 C 113.570312 100.699219 113.886719 100.359375 114.496094 100.183594 C 114.910156 99.984375 115.285156 99.890625 115.636719 99.890625 C 116.574219 99.890625 117.503906 99.808594 118.40625 99.65625 C 119.355469 99.488281 120.320312 99.324219 121.316406 99.160156 C 122.113281 98.996094 122.914062 98.832031 123.699219 98.667969 C 124.484375 98.503906 125.296875 98.335938 126.117188 98.171875 C 126.128906 98.171875 126.152344 98.171875 126.164062 98.171875 C 126.199219 98.171875 126.222656 98.148438 126.269531 98.125 L 128.195312 92.976562 C 128.570312 91.976562 128.898438 91.121094 129.179688 90.367188 C 129.332031 89.980469 129.449219 89.660156 129.542969 89.414062 C 128.710938 89.710938 127.960938 89.96875 127.265625 90.214844 C 126.1875 90.589844 125.15625 90.945312 124.167969 91.273438 C 123.148438 91.613281 122.078125 91.953125 120.988281 92.273438 C 119.886719 92.601562 118.664062 92.964844 117.351562 93.375 C 115.777344 93.871094 114.25 94.351562 112.773438 94.800781 C 111.28125 95.257812 109.734375 95.691406 108.171875 96.105469 C 107.222656 96.28125 106.328125 96.480469 105.460938 96.726562 C 104.523438 96.984375 103.582031 97.199219 102.679688 97.363281 C 102.035156 97.527344 101.363281 97.65625 100.730469 97.738281 C 100.109375 97.820312 99.476562 97.902344 98.804688 97.984375 C 97.890625 98.136719 96.800781 98.066406 95.601562 98.230469 C 95.519531 98.242188 95.425781 98.230469 95.34375 98.230469 C 95.003906 98.160156 94.59375 98.148438 94.136719 98.183594 C 93.511719 98.230469 92.914062 98.160156 92.328125 97.972656 C 89.980469 97.492188 88.511719 96.09375 87.9375 93.8125 C 87.667969 92.835938 87.585938 91.8125 87.667969 90.777344 C 87.1875 91.203125 86.707031 91.601562 86.226562 92 L 83.503906 94.234375 C 83.503906 94.234375 83.457031 94.269531 83.433594 94.292969 C 82.234375 95.058594 81.074219 95.796875 79.957031 96.46875 C 78.761719 97.199219 77.457031 97.785156 76.074219 98.21875 C 74.875 98.621094 73.65625 98.65625 72.632812 97.832031 C 71.847656 97.304688 70.96875 96.234375 71.414062 94.28125 C 69.007812 95.714844 66.261719 97.246094 63.234375 98.832031 C 60.019531 100.523438 56.648438 102.113281 53.222656 103.558594 C 49.785156 105.003906 46.308594 106.25 42.882812 107.238281 C 39.410156 108.246094 36.109375 108.753906 33.09375 108.753906 C 30.078125 108.753906 27.742188 108.273438 25.828125 107.308594 C 23.894531 106.332031 22.355469 104.957031 21.242188 103.191406 C 20.136719 101.441406 19.445312 99.3125 19.152344 96.867188 C 18.871094 94.480469 18.847656 91.777344 19.105469 88.851562 L 19.105469 88.792969 C 19.105469 88.792969 19.105469 88.722656 19.105469 88.6875 L 19.351562 86.945312 C 19.433594 86.347656 19.5625 85.699219 19.738281 85.007812 C 19.878906 84.371094 20.019531 83.726562 20.171875 83.101562 C 20.3125 82.480469 20.464844 81.878906 20.605469 81.292969 C 20.628906 81.210938 20.664062 81.128906 20.710938 81.046875 C 20.757812 80.960938 20.898438 80.703125 21.101562 79.929688 C 21.101562 79.90625 21.113281 79.871094 21.125 79.847656 L 21.863281 77.871094 C 22.0625 77.257812 22.179688 76.988281 22.25 76.847656 L 22.976562 74.910156 C 23.234375 74.214844 23.589844 73.472656 24.011719 72.699219 L 25.054688 70.617188 C 25.417969 69.886719 25.816406 69.136719 26.253906 68.359375 C 26.675781 67.714844 26.78125 67.46875 26.816406 67.382812 C 26.828125 67.324219 26.863281 67.277344 26.886719 67.230469 C 27.132812 66.832031 27.355469 66.445312 27.554688 66.078125 C 27.765625 65.703125 28 65.304688 28.246094 64.878906 C 28.847656 64.035156 29.339844 63.292969 29.738281 62.636719 C 30.160156 61.964844 30.582031 61.320312 31.003906 60.742188 C 31.320312 60.273438 31.558594 59.941406 31.757812 59.730469 C 31.992188 59.34375 32.25 58.96875 32.496094 58.625 C 32.730469 58.308594 33.011719 57.945312 33.328125 57.558594 C 33.410156 57.390625 33.503906 57.238281 33.585938 57.121094 C 33.691406 56.957031 33.84375 56.769531 34.058594 56.570312 L 34.632812 55.875 C 35.523438 54.746094 36.472656 53.617188 37.449219 52.570312 C 38.375 51.574219 39.304688 50.515625 40.21875 49.445312 L 41.003906 48.65625 C 41.898438 47.597656 42.964844 46.613281 44.148438 45.765625 C 44.5625 45.355469 44.925781 45.011719 45.253906 44.71875 C 45.582031 44.425781 45.921875 44.15625 46.25 43.90625 C 46.917969 43.238281 47.648438 42.625 48.410156 42.074219 C 49.160156 41.535156 49.949219 40.980469 50.769531 40.394531 C 51.683594 39.722656 52.566406 39.171875 53.398438 38.734375 C 54.171875 38.324219 54.9375 37.914062 55.675781 37.5 C 56.648438 37.054688 57.507812 36.679688 58.292969 36.347656 C 59.101562 36.007812 59.898438 35.714844 60.640625 35.457031 C 60.664062 35.457031 60.6875 35.445312 60.710938 35.433594 C 60.828125 35.363281 60.96875 35.304688 61.15625 35.292969 L 62.445312 35.007812 C 62.574219 34.878906 62.765625 34.796875 62.964844 34.785156 L 65.933594 34.65625 C 66.144531 34.65625 66.308594 34.714844 66.460938 34.832031 C 67.539062 35.03125 68.480469 35.386719 69.253906 35.902344 C 70.523438 36.773438 71.296875 38.03125 71.566406 39.640625 C 71.648438 40.0625 71.71875 40.523438 71.753906 40.992188 C 71.800781 41.5 71.777344 42.085938 71.683594 42.722656 C 71.601562 43.71875 71.414062 44.742188 71.132812 45.742188 C 70.851562 46.695312 70.546875 47.648438 70.226562 48.5625 C 69.828125 49.738281 69.324219 50.949219 68.761719 52.171875 C 68.1875 53.382812 67.433594 54.734375 66.507812 56.15625 C 66.085938 56.828125 65.617188 57.535156 65.132812 58.226562 C 64.640625 58.933594 64.136719 59.625 63.644531 60.285156 C 63.621094 60.320312 63.597656 60.34375 63.574219 60.367188 C 63.445312 60.496094 63.316406 60.660156 63.175781 60.859375 C 62.988281 61.140625 62.8125 61.367188 62.625 61.554688 C 62.210938 62.117188 61.695312 62.800781 61.074219 63.574219 C 60.875 63.953125 60.640625 64.28125 60.347656 64.5625 C 60.125 64.785156 59.898438 65.046875 59.675781 65.351562 C 59.652344 65.375 59.628906 65.410156 59.605469 65.433594 C 59.546875 65.492188 59.371094 65.691406 58.960938 66.304688 C 58.9375 66.351562 58.902344 66.386719 58.867188 66.421875 L 57.8125 67.480469 C 57.648438 67.726562 57.484375 67.949219 57.316406 68.148438 C 57.152344 68.359375 56.988281 68.546875 56.824219 68.714844 C 56.660156 68.960938 56.496094 69.183594 56.332031 69.382812 C 56.144531 69.617188 55.96875 69.816406 55.78125 70.007812 C 55.347656 70.441406 54.890625 70.722656 54.417969 70.828125 C 54.359375 70.839844 54.289062 70.851562 54.230469 70.851562 C 53.585938 70.851562 53.035156 70.6875 52.578125 70.359375 C 52.261719 70.171875 52 69.816406 51.777344 69.242188 C 51.742188 69.148438 51.71875 69.054688 51.71875 68.949219 C 51.71875 68.136719 52.035156 67.457031 52.636719 66.972656 C 53.46875 66.292969 54.207031 65.46875 54.820312 64.550781 C 54.84375 64.503906 54.878906 64.46875 54.914062 64.433594 L 55.289062 64.058594 C 55.664062 63.679688 56.003906 63.304688 56.273438 62.953125 C 56.566406 62.578125 56.871094 62.1875 57.199219 61.765625 C 57.222656 61.742188 57.234375 61.71875 57.257812 61.695312 C 57.375 61.496094 57.507812 61.332031 57.71875 61.105469 L 59.417969 58.921875 C 60.382812 57.710938 61.238281 56.5 61.964844 55.289062 L 62.976562 53.769531 C 63.304688 53.277344 63.621094 52.761719 63.9375 52.207031 C 64.347656 51.539062 64.734375 50.855469 65.085938 50.140625 C 65.441406 49.433594 65.792969 48.65625 66.109375 47.847656 C 66.261719 47.386719 66.472656 46.800781 66.71875 46.128906 C 66.953125 45.507812 67.152344 44.871094 67.304688 44.238281 C 67.539062 43.507812 67.679688 42.886719 67.714844 42.332031 C 67.75 41.78125 67.738281 41.179688 67.65625 40.558594 C 67.480469 39.757812 67.023438 39.230469 66.226562 38.984375 C 65.792969 38.839844 65.417969 38.769531 65.097656 38.769531 C 64.195312 38.769531 63.316406 38.898438 62.480469 39.171875 C 61.601562 39.453125 60.746094 39.757812 59.933594 40.074219 C 58.480469 40.558594 56.953125 41.320312 55.359375 42.355469 C 53.796875 43.261719 52.402344 44.167969 51.179688 45.058594 C 50.5 45.671875 49.796875 46.257812 49.160156 46.777344 C 48.550781 47.269531 47.953125 47.753906 47.390625 48.246094 C 46.894531 48.65625 46.402344 49.082031 45.921875 49.527344 C 45.429688 49.972656 44.867188 50.527344 44.207031 51.171875 C 43.550781 51.832031 42.964844 52.441406 42.425781 53.007812 C 41.898438 53.582031 41.34375 54.195312 40.769531 54.839844 C 40.546875 55.148438 40.160156 55.582031 39.621094 56.109375 C 39.222656 56.511719 38.855469 56.933594 38.515625 57.390625 C 38.199219 57.816406 37.894531 58.214844 37.601562 58.578125 C 37.578125 58.707031 37.507812 58.828125 37.425781 58.921875 C 36.863281 59.566406 36.296875 60.273438 35.734375 61.035156 C 35.160156 61.8125 34.632812 62.578125 34.140625 63.292969 C 32.90625 65.011719 31.675781 66.949219 30.453125 69.066406 C 29.644531 70.441406 28.882812 71.875 28.1875 73.34375 C 27.496094 74.800781 26.863281 76.25 26.289062 77.636719 C 25.945312 78.316406 25.664062 79 25.441406 79.691406 L 24.574219 82.292969 L 23.835938 84.855469 C 23.433594 86.148438 23.1875 87.167969 23.117188 87.933594 C 23.023438 88.390625 22.976562 88.804688 22.929688 89.226562 C 22.894531 89.636719 22.871094 90.050781 22.871094 90.460938 C 22.871094 90.542969 22.859375 90.625 22.835938 90.707031 C 22.835938 90.742188 22.824219 90.765625 22.8125 90.777344 C 22.847656 90.871094 22.871094 90.980469 22.871094 91.085938 C 22.871094 91.601562 22.824219 92 22.742188 92.320312 C 22.742188 92.496094 22.707031 92.707031 22.671875 92.941406 C 22.648438 93.058594 22.671875 93.175781 22.707031 93.304688 C 22.71875 93.351562 22.730469 93.410156 22.742188 93.472656 C 22.90625 94.859375 23.128906 96.269531 23.410156 97.679688 C 23.683594 99.019531 24.164062 100.242188 24.84375 101.3125 C 25.511719 102.347656 26.488281 103.214844 27.765625 103.886719 C 29.046875 104.570312 30.828125 104.910156 33.082031 104.910156 C 36.519531 104.910156 40.230469 104.214844 44.125 102.851562 C 48.070312 101.464844 52.09375 99.75 56.085938 97.75 C 60.101562 95.738281 64.078125 93.589844 67.90625 91.34375 C 71.753906 89.085938 75.4375 87.074219 78.867188 85.359375 C 79.570312 84.914062 80.308594 84.511719 81.085938 84.183594 C 81.542969 83.996094 82.035156 83.84375 82.5625 83.714844 C 83.054688 83.597656 83.574219 83.453125 84.148438 83.289062 C 84.710938 83.101562 85.308594 83.03125 85.90625 83.078125 C 86.414062 83.125 86.964844 83.183594 87.5625 83.265625 C 87.597656 83.265625 87.632812 83.277344 87.667969 83.289062 C 88.265625 83.464844 88.773438 83.726562 89.171875 84.054688 L 90.554688 82.667969 C 90.859375 82.242188 91.320312 82.019531 91.835938 82.019531 C 92.199219 82.019531 92.550781 82.078125 92.878906 82.183594 C 93.464844 82.328125 93.769531 82.691406 93.914062 82.972656 C 94.148438 83.441406 94.136719 84.019531 93.851562 84.699219 L 93.476562 85.582031 C 93.476562 85.582031 93.441406 85.652344 93.417969 85.6875 C 92.878906 86.546875 92.445312 87.429688 92.140625 88.308594 C 91.824219 89.214844 91.589844 90.15625 91.4375 91.085938 C 91.296875 92.035156 91.4375 92.800781 91.871094 93.425781 C 92.351562 94.128906 93.582031 94.339844 94.535156 94.386719 C 95.882812 94.46875 97.457031 94.386719 99.207031 94.140625 C 100.144531 93.988281 101.140625 93.800781 102.117188 93.589844 C 103.078125 93.386719 104.0625 93.164062 105.050781 92.917969 C 106.445312 92.507812 107.902344 92.105469 109.378906 91.742188 C 110.871094 91.367188 112.316406 90.980469 113.675781 90.578125 C 115.320312 90.085938 116.925781 89.566406 118.464844 89.039062 C 120.027344 88.511719 121.632812 87.945312 123.277344 87.371094 L 125.144531 86.746094 C 125.648438 86.582031 126.140625 86.429688 126.609375 86.300781 C 126.960938 86.207031 127.324219 86.078125 127.6875 85.933594 C 127.6875 85.933594 131.433594 84.664062 131.433594 84.664062 L 132.464844 82.207031 C 132.675781 81.714844 132.886719 81.222656 133.066406 80.761719 C 133.394531 79.929688 133.769531 79.046875 134.191406 78.128906 C 134.601562 77.222656 134.988281 76.34375 135.351562 75.484375 C 135.730469 74.613281 136.117188 73.722656 136.539062 72.804688 C 136.621094 72.628906 136.703125 72.464844 136.773438 72.273438 C 136.867188 72.027344 137.007812 71.769531 137.183594 71.5 C 137.828125 70.113281 138.488281 68.75 139.144531 67.394531 C 139.789062 66.054688 140.503906 64.644531 141.257812 63.222656 C 141.75 62.246094 142.253906 61.238281 142.792969 60.191406 C 143.347656 59.132812 143.96875 58.085938 144.636719 57.085938 C 145.929688 54.734375 147.3125 52.5 148.722656 50.503906 C 149.121094 49.855469 149.566406 49.199219 150.023438 48.574219 C 150.46875 47.953125 150.960938 47.339844 151.480469 46.730469 C 151.703125 46.425781 151.960938 46.105469 152.21875 45.800781 C 152.5 45.472656 152.839844 45.15625 153.214844 44.871094 C 153.746094 44.414062 154.320312 43.945312 154.871094 43.519531 C 155.492188 43.039062 156.242188 42.699219 157.089844 42.507812 C 157.933594 42.296875 158.742188 42.414062 159.460938 42.851562 C 160.140625 43.273438 160.597656 43.894531 160.832031 44.695312 C 161.03125 45.058594 161.242188 45.53125 161.136719 45.988281 L 161.136719 46.566406 C 161.21875 47.304688 161.195312 47.964844 161.054688 48.527344 C 160.925781 49.046875 160.773438 49.5625 160.609375 50.066406 C 160.292969 51.277344 159.882812 52.535156 159.425781 53.746094 C 158.96875 54.945312 158.484375 56.144531 157.992188 57.308594 C 157.652344 58.003906 157.347656 58.660156 157.066406 59.34375 C 156.761719 60.085938 156.386719 60.8125 155.949219 61.507812 C 154.320312 64.527344 152.523438 67.46875 150.609375 70.207031 L 146.644531 75.660156 C 146.222656 76.25 145.761719 76.8125 145.292969 77.34375 C 144.847656 77.824219 144.425781 78.316406 144.027344 78.800781 C 143.296875 79.691406 142.5 80.597656 141.644531 81.503906 C 140.824219 82.363281 140 83.242188 139.191406 84.148438 C 138.464844 85.042969 137.652344 85.898438 136.785156 86.675781 C 135.941406 87.441406 135.046875 88.15625 134.121094 88.828125 C 133.886719 89.003906 133.675781 89.203125 133.488281 89.449219 L 130.683594 96.984375 C 132.640625 96.597656 134.613281 96.164062 136.5625 95.667969 C 138.6875 95.140625 140.847656 94.574219 142.96875 94 C 144.203125 93.671875 145.421875 93.339844 146.609375 93.011719 C 147.792969 92.683594 148.96875 92.355469 150.117188 92.023438 C 153.566406 91.203125 156.914062 90.214844 160.082031 89.074219 L 166.171875 87.203125 C 166.714844 87.050781 167.242188 86.851562 167.746094 86.628906 C 168.296875 86.371094 168.929688 86.148438 169.625 85.96875 L 171.429688 85.242188 C 173.25 84.511719 173.894531 85.722656 174.046875 86.113281 C 174.234375 86.59375 174.503906 87.804688 172.804688 88.652344 Z M 172.863281 88.734375 " fill-opacity="1" fill-rule="evenodd"/><path fill="#1886df" d="M 301.703125 61.296875 L 266.882812 61.296875 L 266.882812 37.984375 C 266.882812 31.210938 266.507812 26.980469 265.769531 25.296875 C 265.027344 23.617188 263.386719 22.78125 260.851562 22.78125 C 257.988281 22.78125 256.167969 23.804688 255.394531 25.851562 C 254.617188 27.898438 254.230469 32.316406 254.230469 39.113281 L 254.230469 101.40625 C 254.230469 107.917969 254.617188 112.175781 255.394531 114.160156 C 256.167969 116.148438 257.90625 117.148438 260.605469 117.148438 C 263.304688 117.148438 264.886719 116.148438 265.6875 114.160156 C 266.484375 112.175781 266.882812 107.496094 266.882812 100.125 L 266.882812 83.265625 L 301.703125 83.265625 L 301.703125 88.5 C 301.703125 102.382812 300.730469 112.222656 298.769531 118.027344 C 296.808594 123.835938 292.480469 128.925781 285.789062 133.300781 C 279.089844 137.671875 270.839844 139.847656 261.015625 139.847656 C 251.191406 139.847656 242.402344 138.003906 235.792969 134.300781 C 229.171875 130.597656 224.796875 125.46875 222.648438 118.933594 C 220.5 112.386719 219.421875 102.546875 219.421875 89.402344 L 219.421875 50.1875 C 219.421875 40.523438 219.75 33.269531 220.417969 28.4375 C 221.074219 23.605469 223.046875 18.949219 226.332031 14.484375 C 229.609375 10.003906 234.160156 6.488281 239.984375 3.925781 C 245.78125 1.351562 252.46875 0.0703125 260.015625 0.0703125 C 270.273438 0.0703125 278.738281 2.058594 285.402344 6.03125 C 292.070312 10.003906 296.457031 14.953125 298.546875 20.878906 C 300.648438 26.804688 301.691406 36.03125 301.691406 48.550781 L 301.691406 61.296875 Z M 301.703125 61.296875 " fill-opacity="1" fill-rule="nonzero"/><path fill="#1886df" d="M 317.570312 2.890625 L 352.394531 2.890625 L 352.394531 137.015625 L 317.570312 137.015625 Z M 317.570312 2.890625 " fill-opacity="1" fill-rule="nonzero"/><path fill="#1886df" d="M 434.277344 2.890625 L 454.195312 137.015625 L 418.609375 137.015625 L 416.746094 112.902344 L 404.292969 112.902344 L 402.203125 137.015625 L 366.207031 137.015625 L 383.953125 2.890625 Z M 415.828125 89.132812 C 414.070312 73.945312 412.296875 55.171875 410.523438 32.800781 C 406.980469 58.484375 404.75 77.257812 403.847656 89.132812 Z M 415.828125 89.132812 " fill-opacity="1" fill-rule="nonzero"/><path fill="#1886df" d="M 502.265625 2.890625 L 502.265625 110.164062 L 523.441406 110.164062 L 523.441406 137.003906 L 467.445312 137.003906 L 467.445312 2.890625 Z M 502.265625 2.890625 " fill-opacity="1" fill-rule="nonzero"/><path fill="#1886df" d="M 537.429688 2.890625 L 596.394531 2.890625 L 596.394531 29.730469 L 572.238281 29.730469 L 572.238281 55.160156 L 593.742188 55.160156 L 593.742188 80.667969 L 572.238281 80.667969 L 572.238281 137.003906 L 537.417969 137.003906 L 537.417969 2.890625 Z M 537.429688 2.890625 " fill-opacity="1" fill-rule="nonzero"/><path fill="#1886df" d="M 688.957031 81.421875 C 688.957031 94.894531 688.640625 104.4375 688.007812 110.046875 C 687.375 115.652344 685.390625 120.78125 682.054688 125.410156 C 678.722656 130.054688 674.214844 133.617188 668.535156 136.097656 C 662.855469 138.578125 656.238281 139.824219 648.691406 139.824219 C 641.144531 139.824219 635.085938 138.648438 629.382812 136.308594 C 623.679688 133.957031 619.089844 130.441406 615.617188 125.753906 C 612.144531 121.0625 610.078125 115.949219 609.410156 110.421875 C 608.75 104.898438 608.410156 95.234375 608.410156 81.433594 L 608.410156 58.484375 C 608.410156 45.011719 608.726562 35.46875 609.363281 29.859375 C 609.996094 24.253906 611.980469 19.125 615.3125 14.496094 C 618.644531 9.851562 623.152344 6.289062 628.832031 3.808594 C 634.511719 1.328125 641.132812 0.0820312 648.679688 0.0820312 C 656.226562 0.0820312 662.28125 1.257812 667.984375 3.597656 C 673.6875 5.949219 678.277344 9.464844 681.75 14.152344 C 685.226562 18.84375 687.289062 23.957031 687.960938 29.484375 C 688.617188 35.007812 688.957031 44.671875 688.957031 58.472656 Z M 654.136719 37.347656 C 654.136719 31.105469 653.796875 27.121094 653.101562 25.382812 C 652.410156 23.640625 650.992188 22.769531 648.84375 22.769531 C 647.023438 22.769531 645.625 23.476562 644.664062 24.886719 C 643.703125 26.296875 643.222656 30.449219 643.222656 37.359375 L 643.222656 99.996094 C 643.222656 107.777344 643.539062 112.585938 644.171875 114.40625 C 644.804688 116.230469 646.285156 117.148438 648.597656 117.148438 C 650.910156 117.148438 652.480469 116.101562 653.148438 113.996094 C 653.808594 111.890625 654.148438 106.894531 654.148438 98.996094 L 654.148438 37.347656 Z M 654.136719 37.347656 " fill-opacity="1" fill-rule="nonzero"/></svg>