<?xml version="1.0" encoding="utf-8"?>
<!-- Generator: Adobe Illustrator 30.4.0, SVG Export Plug-In . SVG Version: 9.03 Build 0)  -->
<svg version="1.1" id="Layer_1" xmlns="http://www.w3.org/2000/svg" xmlns:xlink="http://www.w3.org/1999/xlink" x="0px" y="0px"
	 viewBox="0 0 1080 317.67" style="enable-background:new 0 0 1080 317.67;" xml:space="preserve">
<style type="text/css">
	.st0{fill:#FFFFFF;}
	.st1{fill-rule:evenodd;clip-rule:evenodd;fill:url(#Oval_00000117659719557004061040000007759917461737614474_);}
	.st2{fill-rule:evenodd;clip-rule:evenodd;fill:#EAF6FD;}
	.st3{fill:#FFFFFF;}
</style>
<g>
	<path class="st0" style="display:none" d="M912.88,273.39H167.12c-56.89,0-103.01-46.12-103.01-103.01V147.3c0-56.89,46.12-103.01,103.01-103.01h745.75
		c56.89,0,103.01,46.12,103.01,103.01v23.08C1015.89,227.27,969.77,273.39,912.88,273.39z"/>
	<g>
		<g id="Desktop">
			<g id="Group">
				
					<linearGradient id="Oval_00000045610434549717097490000003058088967630946490_" gradientUnits="userSpaceOnUse" x1="-3632.2769" y1="2223.1406" x2="-3632.2769" y2="2215.1677" gradientTransform="matrix(27 0 0 -27 98254 60076)">
					<stop  offset="0" style="stop-color:#2DAEE4"/>
					<stop  offset="1" style="stop-color:#3677BB"/>
				</linearGradient>
				
					<circle id="Oval" style="fill-rule:evenodd;clip-rule:evenodd;fill:url(#Oval_00000045610434549717097490000003058088967630946490_);" cx="182.53" cy="158.84" r="107.64"/>
				<path id="Combined-Shape" class="st2" d="M221.3,121.37l31.48,81.32h-14.62l-0.94-0.05c-1.21-0.12-2.21-0.49-3.02-1.1
					c-1-0.76-1.77-1.74-2.29-2.93l0,0l-4.8-14.18h-30.92l-4.8,14.18l-0.37,0.76c-0.43,0.74-1.04,1.43-1.84,2.06
					c-1.06,0.84-2.37,1.26-3.93,1.26l0,0h-14.73l31.48-81.32H221.3z M211.59,138.12c-0.56,2.27-1.15,4.37-1.79,6.31
					c-0.63,1.93-1.23,3.61-1.79,5.02l0,0l-7.48,22.16h22.27l-7.53-22.27l-0.43-1.11c-0.43-1.15-0.89-2.45-1.36-3.89
					C212.85,142.42,212.22,140.35,211.59,138.12z"/>
				<g id="DA">
					<g>
						<path id="path-2" d="M145.21,202.69c6.33,0,12.08-1.01,17.27-3.04c5.19-2.03,9.63-4.86,13.31-8.48s6.54-7.93,8.57-12.89
							c2.03-4.97,3.04-10.39,3.04-16.27c0-5.84-1.01-11.25-3.04-16.21c-2.03-4.97-4.88-9.26-8.57-12.86
							c-3.68-3.61-8.12-6.44-13.31-8.48c-5.19-2.05-10.95-3.07-17.27-3.07l0,0h-31.59v81.32H145.21z M145.21,188.18H132.6v-52.3
							h12.61c3.61,0,6.83,0.6,9.66,1.81s5.22,2.94,7.17,5.19s3.45,5,4.49,8.23c1.04,3.24,1.56,6.86,1.56,10.88
							c0,4.06-0.52,7.7-1.56,10.94s-2.54,5.98-4.49,8.23c-1.95,2.25-4.34,3.98-7.17,5.19C152.04,187.57,148.82,188.18,145.21,188.18
							L145.21,188.18z"/>
					</g>
					<g>
						<path id="path-2_00000104673431770608527600000004348711974113953185_" class="st0" d="M145.21,202.69
							c6.33,0,12.08-1.01,17.27-3.04c5.19-2.03,9.63-4.86,13.31-8.48s6.54-7.93,8.57-12.89c2.03-4.97,3.04-10.39,3.04-16.27
							c0-5.84-1.01-11.25-3.04-16.21c-2.03-4.97-4.88-9.26-8.57-12.86c-3.68-3.61-8.12-6.44-13.31-8.48
							c-5.19-2.05-10.95-3.07-17.27-3.07l0,0h-31.59v81.32H145.21z M145.21,188.18H132.6v-52.3h12.61c3.61,0,6.83,0.6,9.66,1.81
							s5.22,2.94,7.17,5.19s3.45,5,4.49,8.23c1.04,3.24,1.56,6.86,1.56,10.88c0,4.06-0.52,7.7-1.56,10.94s-2.54,5.98-4.49,8.23
							c-1.95,2.25-4.34,3.98-7.17,5.19C152.04,187.57,148.82,188.18,145.21,188.18L145.21,188.18z"/>
					</g>
				</g>
			</g>
		</g>
		<g id="Capa_1">
			<path class="st3" d="M390.77,162.94c-2.21,19.14-16.57,33.43-35.93,34.85l-37.2,0.39v-82.59l35.38,0.19
				c11.1,0.06,21.14,5.37,28.47,13.26C389.36,138.62,392.28,150.28,390.77,162.94L390.77,162.94z M373.8,167.93
				c2.05-8.1,1.89-15.83-0.44-23.46c-3.26-9.65-11.74-16.37-22.08-16.47l-18.03-0.16v58.03l18.36-0.17
				C362.29,185.61,370.86,178.27,373.8,167.93L373.8,167.93z"/>
			<path class="st3" d="M705.26,186.24l-2.82-8.35h-34.15l-6.26,17.06c-0.66,1.81-2.92,3.12-4.78,3.27l-12.27-0.18l32.5-82.46h15.79
				l12.5,32.61l19.24,49.88l-12.85,0.09c-1.79,0.01-4.09-2.33-4.6-4.03L705.26,186.24L705.26,186.24z M672.37,166.89l25.99,0.03
				l-13.11-36.39l-1.8,5.97L672.37,166.89z"/>
			<path class="st3" d="M745.45,217.23l-14.32,0.02v-77.73l10.9,0.19c1.52,1.96,2.18,5.1,2.5,7.74c4.07-4.42,8.96-7.84,15.03-8.77
				c9.35-1.44,18.08,2.72,22.04,11.56c4.83,10.79,5.01,23.75,0.19,34.54c-4.48,10.03-14.16,15.36-24.86,14.16
				c-4.4-0.49-7.77-2.27-11.45-5.14L745.45,217.23L745.45,217.23z M756.61,188.19c14.24,0.18,16.16-18.96,12.21-31.27
				c-1.62-5.06-6.1-7.54-11.24-7.24c-5.14,0.3-9.1,3.05-12.14,7.2v25.83C747.89,186.34,751.79,188.13,756.61,188.19L756.61,188.19z"
				/>
			<path class="st3" d="M810.3,217.24h-14.28v-77.66l8.94-0.1c1.53-0.02,3.23,1.53,3.55,2.91l1.17,5.02
				c6.22-7.43,15.67-10.91,25.11-7.93c15.95,5.03,18.55,30.21,12.07,45.16c-4.43,9.52-13.22,15.07-23.55,14.43
				c-4.8-0.3-8.67-1.81-12.96-5.32L810.3,217.24z M829.04,185.92c7.09-4.79,7.46-18.86,5.08-27.89c-0.83-3.16-3.19-6.43-6.25-7.53
				c-6.79-2.44-13.55,0.74-17.59,6.41l0.06,26.18C815,188.43,822.88,190.09,829.04,185.92z"/>
			<path class="st3" d="M496.1,187.98c11.06,0.8,17.21-7.91,20.04-4.29l4.51,5.74c-10.82,12.29-34.07,13.16-45.15,1.25
				c-10.81-11.62-11.09-34.19,0.93-45.01c9.37-8.43,24.13-9.6,34.63-2.57c7.49,5.02,10.09,13.64,10.26,22.31
				c0.04,1.66-0.59,4.65-1.99,5.28l-37.66,0.06c0.59,9,4.81,16.52,14.41,17.22L496.1,187.98z M508.47,162.08
				c-0.16-4.85-1.74-8.26-4.34-10.49c-2.98-2.56-6.79-3.04-10.68-2.59c-6.64,0.78-10.76,6.52-11.41,13.11L508.47,162.08z"/>
			<path class="st3" d="M930.04,139.49l12.06,0.09l-32.28,75.46c-0.51,1.19-2.66,2.28-3.73,2.27l-11.27-0.12l10.93-23.45
				l-23.68-54.1l12.69-0.2c1.01-0.02,3.24,1.3,3.65,2.28l11.81,28.78l2.62,7.6l13.8-35.81
				C927.05,141.26,928.93,139.49,930.04,139.49L930.04,139.49z"/>
			<path class="st3" d="M616.18,185.82l5.05,8.1c-6.38,4.83-14.44,6.59-22.16,4.16c-5.27-1.66-9.1-7.02-9.13-12.82l-0.19-34.92
				l-8.21-0.57l-0.47-8.24l9.44-1.54l3-16.16c0.17-0.91,2.04-2.3,2.93-2.29l7.62,0.09v18.43l15.6-0.02l0.08,10.28l-15.69,0.02
				l0.02,32.38c0,1.53,1.35,3.77,2.46,4.36C610.26,189.02,612.63,185.65,616.18,185.82L616.18,185.82z"/>
			<path class="st3" d="M549.76,185.98c5.53,4.22,13.41,2.28,18.1-1.99c1.23-1.12,4.09-1.49,4.95-0.43l4.7,5.84
				c-5.01,6.03-11.87,8.77-19.53,9.58c-12.02,1.26-22.79-5.25-27.05-16.62c-2.93-7.79-3.13-16.14-0.96-24.23
				c3.15-11.7,13.25-19.23,25.36-19.56c8.21-0.22,15.74,2.26,21.58,8.22l-3.76,5.25c-1.21,1.69-3.52,2.3-5.46,0.92
				c-4.98-3.55-12.37-5.22-17.7-1.51C540.78,157.89,540.78,179.12,549.76,185.98L549.76,185.98z"/>
			<polygon class="st3" points="874.69,198.01 861.07,198.11 861.07,113.35 874.69,113.31 			"/>
			<path class="st3" d="M443.89,198.05l-14.15,0.12v-58.64h9.67c0.87,0,2.56,1.49,2.66,2.26l1.04,7.61
				c4.78-9.1,12.69-13.67,21.98-9.31l-1.1,11.9c-1.52,0.68-3.69,0.8-5.27,0.54c-7.97-1.29-11.93,2.51-14.9,9.81L443.89,198.05
				L443.89,198.05z"/>
			<polygon class="st3" points="415.45,198.02 401.14,198.18 401.12,139.52 415.45,139.51 			"/>
			<path class="st3" d="M405.58,113.84c5.23-1.57,10.23,1.57,11.54,6.51c1.17,4.42-1.52,9.35-6.34,10.72s-9.55-0.96-11.18-5.85
				C398.16,120.91,400.33,115.42,405.58,113.84z"/>
		</g>
	</g>
</g>
</svg>
